<?xml version="1.0" encoding="UTF-8"?>
<svg xmlns="http://www.w3.org/2000/svg" style="display:none">
  <symbol id="icon-clipboard" viewBox="0 0 24 24">
    <path fill="currentColor" d="M16 4h-1.5a1 1 0 0 1-1-1h-5a1 1 0 0 1-1 1H8a2 2 0 0 0-2 2v12a2 2 0 0 0 2 2h8a2 2 0 0 0 2-2V6a2 2 0 0 0-2-2zM12 5.5a1.5 1.5 0 1 1 0 3 1.5 1.5 0 0 1 0-3z"/>
  </symbol>
  <symbol id="icon-send" viewBox="0 0 24 24">
    <path fill="currentColor" d="M2 21l21-9L2 3v7l15 2-15 2v7z"/>
  </symbol>
  <symbol id="icon-user" viewBox="0 0 24 24">
    <path fill="currentColor" d="M12 12a5 5 0 1 0 0-10 5 5 0 0 0 0 10zm0 2c-4.418 0-8 1.79-8 4v2h16v-2c0-2.21-3.582-4-8-4z"/>
  </symbol>
  <symbol id="icon-copy" viewBox="0 0 24 24">
    <path fill="currentColor" d="M16 1H4c-1.1 0-2 .9-2 2v12h2V3h12V1zm3 4H8c-1.1 0-2 .9-2 2v14c0 1.1.9 2 2 2h11c1.1 0 2-.9 2-2V7c0-1.1-.9-2-2-2zm0 16H8V7h11v14z"/>
  </symbol>
  <symbol id="icon-clear" viewBox="0 0 24 24">
    <path fill="currentColor" d="M6 19c0 1.1.9 2 2 2h8c1.1 0 2-.9 2-2V7H6v12zM19 4h-3.5l-1-1h-5l-1 1H5v2h14V4z"/>
  </symbol>
</svg>

